<?xml version="1.0" encoding="UTF-8"?>
<svg xmlns="http://www.w3.org/2000/svg" xmlns:xlink="http://www.w3.org/1999/xlink" width="1024pt" height="1024pt" viewBox="0 0 1024 1024" version="1.1">
<defs>
<filter id="alpha" filterUnits="objectBoundingBox" x="0%" y="0%" width="100%" height="100%">
  <feColorMatrix type="matrix" in="SourceGraphic" values="0 0 0 0 1 0 0 0 0 1 0 0 0 0 1 0 0 0 1 0"/>
</filter>
<mask id="mask0">
  <g filter="url(#alpha)">
<rect x="0" y="0" width="1024" height="1024" style="fill:rgb(0%,0%,0%);fill-opacity:0.501961;stroke:none;"/>
  </g>
</mask>
<clipPath id="clip1">
  <rect width="1024" height="1024"/>
</clipPath>
<g id="surface6" clip-path="url(#clip1)">
<path style=" stroke:none;fill-rule:nonzero;fill:rgb(3.921569%,15.294118%,40.392157%);fill-opacity:1;" d="M 646.109375 806.964844 L 268.714844 531.75 L 284.527344 503.9375 C 284.527344 503.9375 628.367188 699.78125 633.617188 702.71875 C 637.96875 704.457031 642.84375 704.316406 647.085938 702.328125 C 651.992188 699.5625 996.925781 502.964844 996.925781 502.964844 L 1012.800781 530.777344 Z M 646.109375 806.964844 "/>
</g>
<mask id="mask1">
  <g filter="url(#alpha)">
<rect x="0" y="0" width="1024" height="1024" style="fill:rgb(0%,0%,0%);fill-opacity:0.0509804;stroke:none;"/>
  </g>
</mask>
<clipPath id="clip2">
  <rect width="1024" height="1024"/>
</clipPath>
<g id="surface9" clip-path="url(#clip2)">
<path style=" stroke:none;fill-rule:nonzero;fill:rgb(0%,0%,0%);fill-opacity:1;" d="M 1024 912 L 1024 888.382812 L 704.546875 706.382812 L 665.988281 728.347656 C 651.976562 737.390625 634.277344 738.492188 619.253906 731.265625 L 740.042969 893.214844 L 1004.171875 950.71875 L 1004.160156 950.859375 C 1016.628906 941.84375 1024.007812 927.386719 1024 912 Z M 1024 912 "/>
</g>
<mask id="mask2">
  <g filter="url(#alpha)">
<rect x="0" y="0" width="1024" height="1024" style="fill:rgb(0%,0%,0%);fill-opacity:0.101961;stroke:none;"/>
  </g>
</mask>
<clipPath id="clip3">
  <rect width="1024" height="1024"/>
</clipPath>
<g id="surface12" clip-path="url(#clip3)">
<path style=" stroke:none;fill-rule:nonzero;fill:rgb(0%,0%,0%);fill-opacity:1;" d="M 1022.398438 924.269531 L 672.226562 724.792969 L 665.988281 728.351562 C 651.980469 737.390625 634.277344 738.496094 619.253906 731.265625 L 740.042969 893.214844 L 1004.171875 950.71875 L 1004.160156 950.859375 C 1013.121094 944.363281 1019.566406 934.96875 1022.398438 924.269531 Z M 1022.398438 924.269531 "/>
</g>
<mask id="mask3">
  <g filter="url(#alpha)">
<rect x="0" y="0" width="1024" height="1024" style="fill:rgb(0%,0%,0%);fill-opacity:0.101961;stroke:none;"/>
  </g>
</mask>
<clipPath id="clip4">
  <rect width="1024" height="1024"/>
</clipPath>
<g id="surface15" clip-path="url(#clip4)">
<path style=" stroke:none;fill-rule:nonzero;fill:rgb(0%,0%,0%);fill-opacity:1;" d="M 576 789.332031 L 576 266.664062 C 575.929688 243.128906 556.867188 224.070312 533.332031 224 L 320.996094 224 L 320.996094 352 L 321 352 L 321 462.59375 L 267.210938 493.234375 L 267.082031 493.308594 L 266.671875 493.539062 L 266.671875 493.554688 C 260.074219 497.359375 256.007812 504.394531 256.007812 512.011719 L 256.011719 512.148438 L 256 512.03125 L 256 832 L 533.332031 832 C 556.867188 831.929688 575.929688 812.867188 576 789.332031 Z M 576 789.332031 "/>
</g>
<mask id="mask4">
  <g filter="url(#alpha)">
<rect x="0" y="0" width="1024" height="1024" style="fill:rgb(0%,0%,0%);fill-opacity:0.2;stroke:none;"/>
  </g>
</mask>
<clipPath id="clip5">
  <rect width="1024" height="1024"/>
</clipPath>
<g id="surface18" clip-path="url(#clip5)">
<path style=" stroke:none;fill-rule:nonzero;fill:rgb(0%,0%,0%);fill-opacity:1;" d="M 544 821.332031 L 544 298.664062 C 543.929688 275.128906 524.867188 256.070312 501.332031 256 L 320.996094 256 L 320.996094 352 L 321 352 L 321 462.59375 L 267.210938 493.234375 L 267.082031 493.308594 L 266.671875 493.539062 L 266.671875 493.554688 C 260.074219 497.359375 256.007812 504.394531 256.007812 512.011719 L 256.011719 512.148438 L 256 512.03125 L 256 864 L 501.332031 864 C 524.867188 863.929688 543.929688 844.867188 544 821.332031 Z M 544 821.332031 "/>
</g>
<mask id="mask5">
  <g filter="url(#alpha)">
<rect x="0" y="0" width="1024" height="1024" style="fill:rgb(0%,0%,0%);fill-opacity:0.2;stroke:none;"/>
  </g>
</mask>
<clipPath id="clip6">
  <rect width="1024" height="1024"/>
</clipPath>
<g id="surface21" clip-path="url(#clip6)">
<path style=" stroke:none;fill-rule:nonzero;fill:rgb(0%,0%,0%);fill-opacity:1;" d="M 544 757.332031 L 544 298.664062 C 543.929688 275.128906 524.867188 256.070312 501.332031 256 L 320.996094 256 L 320.996094 352 L 321 352 L 321 462.59375 L 267.210938 493.234375 L 267.082031 493.308594 L 266.671875 493.539062 L 266.671875 493.554688 C 260.074219 497.359375 256.007812 504.394531 256.007812 512.011719 L 256.011719 512.148438 L 256 512.03125 L 256 800 L 501.332031 800 C 524.867188 799.929688 543.929688 780.867188 544 757.332031 Z M 544 757.332031 "/>
</g>
<mask id="mask6">
  <g filter="url(#alpha)">
<rect x="0" y="0" width="1024" height="1024" style="fill:rgb(0%,0%,0%);fill-opacity:0.2;stroke:none;"/>
  </g>
</mask>
<clipPath id="clip7">
  <rect width="1024" height="1024"/>
</clipPath>
<g id="surface24" clip-path="url(#clip7)">
<path style=" stroke:none;fill-rule:nonzero;fill:rgb(0%,0%,0%);fill-opacity:1;" d="M 512 757.332031 L 512 298.664062 C 511.929688 275.128906 492.867188 256.070312 469.332031 256 L 320.996094 256 L 320.996094 352 L 321 352 L 321 462.59375 L 267.210938 493.234375 L 267.082031 493.308594 L 266.671875 493.539062 L 266.671875 493.554688 C 260.074219 497.359375 256.007812 504.394531 256.007812 512.011719 L 256.011719 512.148438 L 256 512.03125 L 256 800 L 469.332031 800 C 492.867188 799.929688 511.929688 780.867188 512 757.332031 Z M 512 757.332031 "/>
</g>
</defs>
<g id="surface1">
<path style=" stroke:none;fill-rule:nonzero;fill:rgb(1.176471%,39.215686%,72.156863%);fill-opacity:1;" d="M 915.058594 64 L 364.929688 64 C 340.113281 64 320 84.117188 320 108.929688 L 320 160 L 630.078125 256 L 959.988281 160 L 959.988281 108.929688 C 959.988281 84.113281 939.871094 64 915.058594 64 Z M 915.058594 64 "/>
<path style=" stroke:none;fill-rule:nonzero;fill:rgb(3.921569%,15.294118%,40.392157%);fill-opacity:1;" d="M 1012.796875 556.976562 C 1017.484375 542.242188 1021.226562 527.222656 1024 512.015625 C 1024 504.398438 1019.933594 497.359375 1013.335938 493.554688 L 1013.335938 493.542969 L 1012.925781 493.308594 L 1012.796875 493.238281 L 665.988281 295.664062 C 664.488281 294.695312 662.9375 293.8125 661.339844 293.015625 C 647.898438 286.347656 632.113281 286.347656 618.671875 293.015625 C 617.070312 293.8125 615.519531 294.695312 614.019531 295.664062 L 267.210938 493.238281 L 267.085938 493.308594 L 266.675781 493.542969 L 266.675781 493.554688 C 260.078125 497.359375 256.011719 504.398438 256.011719 512.015625 C 258.785156 527.222656 262.527344 542.242188 267.214844 556.972656 L 634.949219 825.933594 Z M 1012.796875 556.976562 "/>
<path style=" stroke:none;fill-rule:nonzero;fill:rgb(15.686275%,65.882353%,91.764706%);fill-opacity:1;" d="M 768 160 L 544 160 L 479.328125 256 L 544 352 L 768 544 L 960 544 L 960 352 Z M 768 160 "/>
<path style=" stroke:none;fill-rule:nonzero;fill:rgb(0%,47.058824%,83.137255%);fill-opacity:1;" d="M 320 160 L 543.996094 160 L 543.996094 352 L 320 352 Z M 320 160 "/>
<path style=" stroke:none;fill-rule:nonzero;fill:rgb(31.372549%,85.098039%,100%);fill-opacity:1;" d="M 767.988281 160 L 959.988281 160 L 959.988281 352 L 767.988281 352 Z M 767.988281 160 "/>
<path style=" stroke:none;fill-rule:nonzero;fill:rgb(1.176471%,39.215686%,72.156863%);fill-opacity:1;" d="M 768 544 L 544 352 L 320 352 L 320 544 L 544 736 L 890.625 792.574219 Z M 768 544 "/>
<path style=" stroke:none;fill-rule:nonzero;fill:rgb(0%,47.058824%,83.137255%);fill-opacity:1;" d="M 543.992188 352 L 767.992188 352 L 767.992188 544 L 543.992188 544 Z M 543.992188 352 "/>
<path style=" stroke:none;fill-rule:nonzero;fill:rgb(2.352941%,29.019608%,54.901961%);fill-opacity:1;" d="M 320 544 L 543.992188 544 L 543.992188 736 L 320 736 Z M 320 544 "/>
<path style=" stroke:none;fill-rule:nonzero;fill:rgb(0%,47.058824%,83.137255%);fill-opacity:1;" d="M 767.992188 544 L 959.988281 544 L 959.988281 736 L 767.992188 736 Z M 767.992188 544 "/>
<use xlink:href="#surface6" mask="url(#mask0)"/>
<path style=" stroke:none;fill-rule:nonzero;fill:rgb(7.843137%,56.470588%,87.45098%);fill-opacity:1;" d="M 1013.335938 530.457031 L 1013.335938 530.472656 L 1012.910156 530.714844 L 1012.804688 530.773438 L 665.988281 728.351562 C 651.976562 737.390625 634.277344 738.496094 619.253906 731.265625 L 740.042969 893.214844 L 1004.171875 950.71875 L 1004.164062 950.863281 C 1016.628906 941.84375 1024.011719 927.386719 1024 912 L 1024 512 C 1023.996094 519.617188 1019.929688 526.652344 1013.335938 530.457031 Z M 1013.335938 530.457031 "/>
<use xlink:href="#surface9" mask="url(#mask1)"/>
<use xlink:href="#surface12" mask="url(#mask2)"/>
<path style=" stroke:none;fill-rule:nonzero;fill:rgb(15.686275%,65.882353%,91.764706%);fill-opacity:1;" d="M 267.199219 530.878906 L 267.199219 530.558594 L 266.878906 530.558594 L 265.921875 529.921875 C 259.699219 526.097656 255.9375 519.300781 256 512 L 256 912 C 255.984375 924.734375 261.035156 936.953125 270.039062 945.960938 C 279.046875 954.964844 291.265625 960.015625 304 960 L 976 960 C 979.996094 959.960938 983.976562 959.421875 987.839844 958.398438 C 989.84375 958.050781 991.785156 957.402344 993.601562 956.480469 C 994.28125 956.414062 994.9375 956.195312 995.519531 955.839844 C 998.140625 954.769531 1000.613281 953.371094 1002.878906 951.679688 C 1003.519531 951.359375 1003.839844 951.359375 1004.160156 950.71875 Z M 267.199219 530.878906 "/>
<use xlink:href="#surface15" mask="url(#mask3)"/>
<use xlink:href="#surface18" mask="url(#mask4)"/>
<use xlink:href="#surface21" mask="url(#mask5)"/>
<use xlink:href="#surface24" mask="url(#mask6)"/>
<path style=" stroke:none;fill-rule:nonzero;fill:rgb(0%,47.058824%,83.137255%);fill-opacity:1;" d="M 42.671875 256 L 469.332031 256 C 492.898438 256 512 275.101562 512 298.667969 L 512 725.332031 C 512 748.898438 492.898438 768 469.332031 768 L 42.671875 768 C 19.105469 768 0.00390625 748.898438 0.00390625 725.332031 L 0.00390625 298.667969 C 0.00390625 275.101562 19.105469 256 42.671875 256 Z M 42.671875 256 "/>
<path style=" stroke:none;fill-rule:nonzero;fill:rgb(100%,100%,100%);fill-opacity:1;" d="M 123.730469 430.976562 C 135.066406 406.820312 153.363281 386.609375 176.273438 372.929688 C 201.652344 358.402344 230.546875 351.160156 259.777344 352 C 286.859375 351.410156 313.585938 358.277344 337.027344 371.851562 C 359.085938 384.988281 376.855469 404.257812 388.164062 427.308594 C 400.480469 452.703125 406.617188 480.652344 406.074219 508.871094 C 406.675781 538.371094 400.359375 567.597656 387.625 594.210938 C 376.0625 618.078125 357.757812 638.035156 334.976562 651.609375 C 310.625 665.609375 282.898438 672.660156 254.816406 672 C 227.152344 672.65625 199.835938 665.71875 175.84375 651.933594 C 153.601562 638.769531 135.621094 619.480469 124.054688 596.371094 C 111.65625 571.339844 105.441406 543.703125 105.929688 515.777344 C 105.386719 486.527344 111.472656 457.535156 123.730469 430.976562 Z M 179.726562 567.242188 C 185.773438 582.507812 196.023438 595.75 209.285156 605.433594 C 222.796875 614.886719 238.980469 619.765625 255.460938 619.351562 C 273.019531 620.039062 290.324219 615 304.769531 605 C 317.875 595.316406 327.851562 582 333.464844 566.699219 C 339.769531 549.648438 342.878906 531.582031 342.636719 513.402344 C 342.835938 495.0625 339.914062 476.820312 334.003906 459.457031 C 328.789062 443.824219 319.160156 430.035156 306.277344 419.753906 C 292.207031 409.253906 274.949219 403.917969 257.40625 404.648438 C 240.566406 404.21875 224.027344 409.128906 210.148438 418.675781 C 196.628906 428.386719 186.152344 441.746094 179.941406 457.191406 C 166.207031 492.574219 166.128906 531.804688 179.726562 567.242188 Z M 179.726562 567.242188 "/>
</g>
</svg>
